<svg xmlns="http://www.w3.org/2000/svg" width="1494" height="383" viewBox="0 0 1494 383" role="img" aria-label="HUMAN STEM logo vectorizado con fondo transparente">
<title>HUMAN STEM logo vectorizado</title>
<desc>Versión vectorizada del logotipo HUMAN STEM con fondo transparente.</desc>
<g fill-rule="evenodd" stroke="none">
<path fill="#03123A" d="M 926.0 121.0 L 926.0 323.0 L 927.0 324.0 L 957.0 324.0 L 957.0 178.0 L 959.0 177.0 L 1011.0 245.0 L 1066.0 320.0 L 1070.0 324.0 L 1097.0 324.0 L 1098.0 323.0 L 1098.0 121.0 L 1068.0 121.0 L 1068.0 265.0 L 1067.0 266.0 L 1063.0 263.0 L 959.0 124.0 L 956.0 121.0 Z M 802.0 121.0 L 797.0 136.0 L 782.0 171.0 L 760.0 228.0 L 757.0 233.0 L 748.0 258.0 L 732.0 296.0 L 731.0 301.0 L 724.0 316.0 L 722.0 324.0 L 753.0 324.0 L 776.0 266.0 L 848.0 266.0 L 852.0 273.0 L 853.0 278.0 L 872.0 324.0 L 903.0 324.0 L 904.0 323.0 L 901.0 318.0 L 900.0 313.0 L 884.0 273.0 L 881.0 268.0 L 863.0 221.0 L 860.0 216.0 L 859.0 211.0 L 844.0 177.0 L 836.0 155.0 L 833.0 150.0 L 822.0 121.0 Z M 811.0 173.0 L 814.0 176.0 L 824.0 204.0 L 827.0 209.0 L 829.0 217.0 L 837.0 235.0 L 836.0 239.0 L 788.0 239.0 L 787.0 238.0 L 789.0 230.0 L 793.0 222.0 L 806.0 184.0 Z M 506.0 121.0 L 506.0 324.0 L 536.0 324.0 L 536.0 169.0 L 538.0 168.0 L 574.0 213.0 L 602.0 246.0 L 603.0 246.0 L 603.0 203.0 L 535.0 121.0 Z M 287.0 121.0 L 287.0 247.0 L 288.0 248.0 L 288.0 259.0 L 293.0 280.0 L 297.0 289.0 L 306.0 302.0 L 319.0 313.0 L 328.0 318.0 L 341.0 323.0 L 362.0 327.0 L 388.0 327.0 L 389.0 326.0 L 403.0 325.0 L 422.0 319.0 L 440.0 308.0 L 449.0 299.0 L 456.0 289.0 L 462.0 275.0 L 465.0 260.0 L 465.0 250.0 L 466.0 249.0 L 466.0 121.0 L 435.0 121.0 L 435.0 250.0 L 434.0 251.0 L 433.0 264.0 L 429.0 275.0 L 425.0 281.0 L 417.0 289.0 L 411.0 293.0 L 396.0 299.0 L 383.0 300.0 L 382.0 301.0 L 361.0 300.0 L 345.0 295.0 L 337.0 290.0 L 325.0 277.0 L 321.0 268.0 L 319.0 259.0 L 319.0 251.0 L 318.0 250.0 L 318.0 121.0 Z M 72.0 121.0 L 72.0 324.0 L 103.0 324.0 L 103.0 238.0 L 112.0 236.0 L 215.0 236.0 L 217.0 238.0 L 217.0 324.0 L 247.0 324.0 L 247.0 121.0 L 217.0 121.0 L 217.0 207.0 L 216.0 208.0 L 104.0 208.0 L 103.0 207.0 L 103.0 121.0 Z M 521.0 57.0 L 512.0 62.0 L 508.0 67.0 L 506.0 72.0 L 506.0 84.0 L 509.0 90.0 L 515.0 96.0 L 522.0 99.0 L 531.0 99.0 L 537.0 97.0 L 544.0 91.0 L 548.0 82.0 L 548.0 75.0 L 546.0 68.0 L 540.0 61.0 L 532.0 57.0 Z"/>
<path fill="#5D6572" d="M 672.0 120.0 L 605.0 201.0 L 603.0 202.0 L 600.0 199.0 L 604.0 203.0 L 604.0 246.0 L 602.0 247.0 L 606.0 244.0 L 663.0 173.0 L 668.0 169.0 L 669.0 170.0 L 669.0 324.0 L 699.0 324.0 L 700.0 323.0 L 700.0 121.0 L 699.0 120.0 Z M 686.0 57.0 L 680.0 56.0 L 679.0 57.0 L 674.0 57.0 L 668.0 60.0 L 664.0 64.0 L 660.0 72.0 L 659.0 78.0 L 662.0 89.0 L 667.0 95.0 L 675.0 99.0 L 685.0 99.0 L 692.0 96.0 L 698.0 90.0 L 701.0 83.0 L 701.0 73.0 L 698.0 66.0 L 691.0 59.0 Z"/>
<path fill="#3F6C98" d="M 1340.0 124.0 L 1339.0 135.0 L 1337.0 142.0 L 1337.0 149.0 L 1335.0 156.0 L 1335.0 163.0 L 1334.0 164.0 L 1335.0 167.0 L 1333.0 171.0 L 1332.0 183.0 L 1331.0 184.0 L 1332.0 187.0 L 1330.0 191.0 L 1328.0 207.0 L 1329.0 208.0 L 1336.0 208.0 L 1337.0 207.0 L 1336.0 204.0 L 1338.0 200.0 L 1338.0 192.0 L 1341.0 177.0 L 1343.0 154.0 L 1345.0 150.0 L 1347.0 151.0 L 1347.0 153.0 L 1360.0 177.0 L 1361.0 182.0 L 1370.0 198.0 L 1374.0 208.0 L 1377.0 207.0 L 1377.0 204.0 L 1383.0 194.0 L 1383.0 191.0 L 1399.0 161.0 L 1399.0 158.0 L 1402.0 152.0 L 1405.0 150.0 L 1407.0 155.0 L 1406.0 158.0 L 1407.0 159.0 L 1407.0 166.0 L 1409.0 170.0 L 1408.0 173.0 L 1410.0 177.0 L 1409.0 180.0 L 1410.0 181.0 L 1410.0 189.0 L 1412.0 193.0 L 1411.0 196.0 L 1413.0 200.0 L 1412.0 202.0 L 1413.0 208.0 L 1421.0 208.0 L 1412.0 138.0 L 1410.0 132.0 L 1411.0 130.0 L 1410.0 124.0 L 1407.0 126.0 L 1399.0 141.0 L 1399.0 144.0 L 1389.0 162.0 L 1389.0 165.0 L 1375.0 190.0 L 1373.0 189.0 L 1367.0 176.0 L 1365.0 174.0 L 1363.0 167.0 L 1353.0 149.0 L 1353.0 146.0 L 1343.0 128.0 L 1342.0 124.0 Z M 1263.0 124.0 L 1263.0 207.0 L 1264.0 208.0 L 1309.0 208.0 L 1310.0 207.0 L 1309.0 203.0 L 1310.0 200.0 L 1309.0 199.0 L 1273.0 199.0 L 1272.0 198.0 L 1272.0 167.0 L 1273.0 166.0 L 1305.0 166.0 L 1306.0 167.0 L 1310.0 166.0 L 1309.0 159.0 L 1273.0 159.0 L 1272.0 158.0 L 1272.0 133.0 L 1273.0 132.0 L 1310.0 132.0 L 1310.0 124.0 L 1308.0 125.0 L 1306.0 124.0 L 1290.0 124.0 L 1289.0 125.0 L 1281.0 125.0 L 1280.0 124.0 L 1279.0 125.0 L 1277.0 124.0 L 1265.0 125.0 Z M 1198.0 125.0 L 1198.0 132.0 L 1199.0 133.0 L 1216.0 133.0 L 1217.0 134.0 L 1217.0 207.0 L 1218.0 208.0 L 1225.0 208.0 L 1226.0 207.0 L 1226.0 134.0 L 1227.0 133.0 L 1244.0 133.0 L 1244.0 125.0 L 1243.0 124.0 Z M 1162.0 122.0 L 1150.0 124.0 L 1149.0 126.0 L 1147.0 126.0 L 1143.0 130.0 L 1143.0 132.0 L 1140.0 136.0 L 1139.0 143.0 L 1141.0 151.0 L 1151.0 162.0 L 1159.0 167.0 L 1172.0 181.0 L 1174.0 186.0 L 1172.0 194.0 L 1163.0 201.0 L 1154.0 201.0 L 1149.0 199.0 L 1146.0 196.0 L 1145.0 193.0 L 1143.0 192.0 L 1142.0 188.0 L 1136.0 190.0 L 1135.0 192.0 L 1138.0 199.0 L 1145.0 206.0 L 1152.0 209.0 L 1154.0 208.0 L 1158.0 210.0 L 1163.0 208.0 L 1166.0 209.0 L 1170.0 206.0 L 1172.0 206.0 L 1179.0 199.0 L 1182.0 192.0 L 1181.0 190.0 L 1182.0 182.0 L 1178.0 173.0 L 1170.0 165.0 L 1167.0 164.0 L 1161.0 158.0 L 1153.0 153.0 L 1147.0 143.0 L 1149.0 135.0 L 1152.0 132.0 L 1156.0 131.0 L 1163.0 131.0 L 1167.0 133.0 L 1173.0 138.0 L 1174.0 141.0 L 1179.0 137.0 L 1180.0 134.0 L 1174.0 127.0 L 1167.0 123.0 Z"/>
<path fill="#43B843" d="M 1150.0 237.0 L 1148.0 239.0 L 1148.0 242.0 L 1150.0 244.0 L 1150.0 267.0 L 1131.0 298.0 L 1131.0 302.0 L 1137.0 308.0 L 1176.0 308.0 L 1179.0 307.0 L 1183.0 301.0 L 1183.0 298.0 L 1172.0 277.0 L 1165.0 267.0 L 1165.0 245.0 L 1167.0 242.0 L 1167.0 238.0 L 1165.0 237.0 Z M 1150.0 239.0 L 1165.0 239.0 L 1166.0 240.0 L 1164.0 243.0 L 1163.0 265.0 L 1181.0 297.0 L 1181.0 302.0 L 1177.0 306.0 L 1137.0 306.0 L 1133.0 302.0 L 1133.0 298.0 L 1151.0 268.0 L 1151.0 243.0 L 1149.0 241.0 Z"/>
<path fill="#24C6E2" d="M 1209.0 289.0 L 1212.0 291.0 L 1227.0 291.0 L 1228.0 292.0 L 1227.0 299.0 L 1224.0 301.0 L 1220.0 301.0 L 1218.0 303.0 L 1218.0 305.0 L 1220.0 307.0 L 1243.0 307.0 L 1244.0 306.0 L 1244.0 303.0 L 1242.0 301.0 L 1236.0 299.0 L 1235.0 292.0 L 1236.0 291.0 L 1244.0 291.0 L 1246.0 290.0 L 1245.0 289.0 Z M 1221.0 303.0 L 1222.0 302.0 L 1227.0 302.0 L 1229.0 300.0 L 1229.0 292.0 L 1233.0 291.0 L 1234.0 292.0 L 1234.0 300.0 L 1236.0 302.0 L 1240.0 302.0 L 1241.0 304.0 L 1231.0 306.0 L 1230.0 305.0 L 1222.0 305.0 Z M 1201.0 249.0 L 1201.0 281.0 L 1203.0 284.0 L 1258.0 284.0 L 1260.0 280.0 L 1259.0 277.0 L 1259.0 261.0 L 1258.0 261.0 L 1258.0 281.0 L 1257.0 282.0 L 1235.0 282.0 L 1234.0 281.0 L 1229.0 282.0 L 1220.0 282.0 L 1219.0 281.0 L 1217.0 282.0 L 1204.0 282.0 L 1203.0 281.0 L 1203.0 250.0 L 1205.0 248.0 L 1209.0 248.0 L 1211.0 250.0 L 1212.0 264.0 L 1214.0 268.0 L 1224.0 276.0 L 1235.0 277.0 L 1243.0 273.0 L 1250.0 265.0 L 1252.0 256.0 L 1250.0 247.0 L 1248.0 243.0 L 1243.0 238.0 L 1236.0 235.0 L 1226.0 235.0 L 1217.0 240.0 L 1212.0 248.0 L 1208.0 246.0 L 1204.0 246.0 Z M 1239.0 271.0 L 1239.0 269.0 L 1240.0 268.0 L 1242.0 268.0 L 1243.0 269.0 L 1243.0 270.0 L 1241.0 272.0 L 1240.0 272.0 Z M 1220.0 269.0 L 1221.0 268.0 L 1222.0 268.0 L 1224.0 270.0 L 1224.0 271.0 L 1223.0 272.0 L 1221.0 272.0 L 1220.0 271.0 Z M 1236.0 266.0 L 1237.0 267.0 L 1237.0 270.0 L 1234.0 273.0 L 1233.0 273.0 L 1232.0 272.0 L 1232.0 267.0 L 1233.0 266.0 Z M 1226.0 266.0 L 1230.0 266.0 L 1231.0 267.0 L 1231.0 273.0 L 1230.0 274.0 L 1229.0 274.0 L 1225.0 269.0 L 1225.0 267.0 Z M 1248.0 257.0 L 1249.0 258.0 L 1248.0 264.0 L 1245.0 267.0 L 1243.0 267.0 L 1241.0 265.0 L 1241.0 261.0 L 1244.0 257.0 Z M 1232.0 258.0 L 1233.0 257.0 L 1239.0 257.0 L 1240.0 262.0 L 1238.0 264.0 L 1233.0 264.0 L 1232.0 263.0 Z M 1223.0 258.0 L 1224.0 257.0 L 1229.0 257.0 L 1231.0 259.0 L 1231.0 262.0 L 1229.0 264.0 L 1224.0 265.0 L 1223.0 264.0 Z M 1214.0 257.0 L 1219.0 257.0 L 1221.0 259.0 L 1222.0 265.0 L 1219.0 268.0 L 1217.0 268.0 L 1213.0 262.0 Z M 1232.0 249.0 L 1233.0 248.0 L 1239.0 248.0 L 1241.0 255.0 L 1240.0 256.0 L 1233.0 256.0 L 1232.0 255.0 Z M 1222.0 251.0 L 1224.0 248.0 L 1229.0 248.0 L 1231.0 250.0 L 1231.0 254.0 L 1227.0 256.0 L 1224.0 256.0 L 1222.0 254.0 Z M 1245.0 245.0 L 1249.0 249.0 L 1250.0 252.0 L 1249.0 256.0 L 1243.0 256.0 L 1242.0 255.0 L 1242.0 247.0 Z M 1222.0 247.0 L 1221.0 254.0 L 1214.0 256.0 L 1213.0 255.0 L 1214.0 248.0 L 1217.0 245.0 Z M 1239.0 240.0 L 1240.0 239.0 L 1241.0 239.0 L 1244.0 242.0 L 1244.0 244.0 L 1243.0 245.0 L 1241.0 245.0 L 1239.0 242.0 Z M 1223.0 239.0 L 1224.0 240.0 L 1224.0 242.0 L 1222.0 244.0 L 1220.0 244.0 L 1219.0 243.0 L 1219.0 242.0 L 1222.0 239.0 Z M 1233.0 237.0 L 1234.0 237.0 L 1235.0 238.0 L 1235.0 239.0 L 1237.0 241.0 L 1237.0 242.0 L 1238.0 243.0 L 1238.0 245.0 L 1235.0 247.0 L 1233.0 247.0 L 1232.0 246.0 L 1232.0 238.0 Z M 1230.0 237.0 L 1231.0 238.0 L 1231.0 244.0 L 1229.0 247.0 L 1227.0 247.0 L 1225.0 245.0 L 1225.0 243.0 L 1226.0 242.0 L 1226.0 241.0 L 1228.0 239.0 L 1228.0 238.0 L 1229.0 237.0 Z"/>
<path fill="#EF8B18" d="M 1304.0 259.0 L 1300.0 261.0 L 1296.0 266.0 L 1295.0 278.0 L 1298.0 283.0 L 1304.0 287.0 L 1315.0 286.0 L 1321.0 280.0 L 1322.0 277.0 L 1321.0 266.0 L 1318.0 262.0 L 1313.0 259.0 Z M 1304.0 261.0 L 1312.0 261.0 L 1320.0 269.0 L 1319.0 279.0 L 1312.0 285.0 L 1303.0 284.0 L 1297.0 277.0 L 1297.0 269.0 L 1300.0 264.0 Z M 1303.0 238.0 L 1301.0 247.0 L 1295.0 249.0 L 1289.0 245.0 L 1282.0 252.0 L 1282.0 255.0 L 1286.0 259.0 L 1286.0 261.0 L 1283.0 266.0 L 1277.0 267.0 L 1275.0 269.0 L 1275.0 277.0 L 1278.0 280.0 L 1279.0 279.0 L 1283.0 280.0 L 1285.0 283.0 L 1285.0 287.0 L 1281.0 292.0 L 1285.0 298.0 L 1290.0 301.0 L 1293.0 298.0 L 1297.0 297.0 L 1302.0 301.0 L 1302.0 306.0 L 1303.0 307.0 L 1313.0 307.0 L 1315.0 303.0 L 1315.0 300.0 L 1317.0 298.0 L 1321.0 297.0 L 1325.0 301.0 L 1327.0 301.0 L 1334.0 295.0 L 1335.0 291.0 L 1331.0 285.0 L 1334.0 280.0 L 1338.0 280.0 L 1341.0 278.0 L 1341.0 268.0 L 1334.0 266.0 L 1332.0 264.0 L 1331.0 259.0 L 1334.0 256.0 L 1335.0 253.0 L 1334.0 251.0 L 1329.0 249.0 L 1330.0 247.0 L 1329.0 246.0 L 1326.0 246.0 L 1322.0 249.0 L 1319.0 249.0 L 1314.0 246.0 L 1313.0 238.0 Z M 1305.0 240.0 L 1312.0 240.0 L 1313.0 241.0 L 1313.0 248.0 L 1321.0 252.0 L 1326.0 248.0 L 1328.0 248.0 L 1332.0 253.0 L 1332.0 255.0 L 1328.0 259.0 L 1332.0 268.0 L 1337.0 268.0 L 1339.0 270.0 L 1339.0 276.0 L 1332.0 278.0 L 1329.0 284.0 L 1329.0 288.0 L 1332.0 291.0 L 1332.0 293.0 L 1327.0 298.0 L 1325.0 298.0 L 1321.0 294.0 L 1313.0 298.0 L 1313.0 304.0 L 1311.0 306.0 L 1305.0 306.0 L 1303.0 297.0 L 1296.0 294.0 L 1293.0 295.0 L 1290.0 298.0 L 1287.0 298.0 L 1284.0 293.0 L 1284.0 291.0 L 1288.0 287.0 L 1286.0 279.0 L 1278.0 277.0 L 1276.0 275.0 L 1277.0 270.0 L 1279.0 268.0 L 1285.0 268.0 L 1289.0 260.0 L 1285.0 255.0 L 1285.0 252.0 L 1289.0 248.0 L 1296.0 252.0 L 1303.0 249.0 Z"/>
<path fill="#E9777E" d="M 1397.0 296.0 L 1397.0 302.0 L 1398.0 303.0 L 1422.0 303.0 L 1423.0 302.0 L 1423.0 296.0 L 1421.0 294.0 L 1399.0 294.0 Z M 1398.0 298.0 L 1403.0 295.0 L 1405.0 296.0 L 1421.0 296.0 L 1422.0 300.0 L 1420.0 302.0 L 1400.0 302.0 L 1398.0 300.0 Z M 1397.0 284.0 L 1397.0 289.0 L 1399.0 291.0 L 1421.0 291.0 L 1423.0 289.0 L 1423.0 284.0 L 1419.0 281.0 L 1401.0 281.0 Z M 1399.0 285.0 L 1401.0 283.0 L 1420.0 283.0 L 1422.0 285.0 L 1422.0 287.0 L 1420.0 289.0 L 1400.0 289.0 Z M 1364.0 279.0 L 1359.0 285.0 L 1364.0 291.0 L 1364.0 294.0 L 1359.0 300.0 L 1363.0 306.0 L 1367.0 306.0 L 1373.0 301.0 L 1378.0 306.0 L 1381.0 306.0 L 1385.0 302.0 L 1385.0 299.0 L 1380.0 293.0 L 1385.0 286.0 L 1384.0 282.0 L 1379.0 279.0 L 1373.0 284.0 L 1371.0 284.0 L 1366.0 279.0 Z M 1380.0 281.0 L 1383.0 284.0 L 1383.0 286.0 L 1377.0 293.0 L 1382.0 298.0 L 1383.0 301.0 L 1380.0 304.0 L 1378.0 304.0 L 1372.0 298.0 L 1366.0 304.0 L 1364.0 304.0 L 1361.0 300.0 L 1368.0 293.0 L 1362.0 286.0 L 1362.0 283.0 L 1366.0 282.0 L 1372.0 288.0 Z M 1395.0 251.0 L 1395.0 256.0 L 1399.0 259.0 L 1421.0 259.0 L 1424.0 256.0 L 1424.0 252.0 L 1422.0 249.0 L 1397.0 249.0 Z M 1397.0 252.0 L 1398.0 251.0 L 1421.0 251.0 L 1422.0 256.0 L 1421.0 257.0 L 1398.0 257.0 Z M 1375.0 238.0 L 1368.0 239.0 L 1367.0 241.0 L 1368.0 247.0 L 1366.0 249.0 L 1360.0 249.0 L 1358.0 255.0 L 1361.0 259.0 L 1366.0 259.0 L 1367.0 260.0 L 1367.0 266.0 L 1368.0 268.0 L 1371.0 269.0 L 1377.0 267.0 L 1377.0 260.0 L 1378.0 259.0 L 1384.0 259.0 L 1386.0 257.0 L 1386.0 250.0 L 1377.0 248.0 L 1377.0 240.0 Z M 1370.0 240.0 L 1375.0 241.0 L 1376.0 250.0 L 1383.0 250.0 L 1385.0 252.0 L 1385.0 255.0 L 1383.0 257.0 L 1376.0 257.0 L 1375.0 258.0 L 1375.0 266.0 L 1374.0 267.0 L 1371.0 267.0 L 1369.0 265.0 L 1369.0 257.0 L 1362.0 257.0 L 1360.0 255.0 L 1360.0 252.0 L 1362.0 250.0 L 1369.0 250.0 L 1369.0 241.0 Z"/>
</g>
</svg>