<svg width="200" height="68" viewBox="0 0 200 68" fill="none" xmlns="http://www.w3.org/2000/svg">
<g clip-path="url(#clip0_174_374)">
<path d="M159.8 0.159912C108.84 0.159912 57.88 0.159912 6.88 0.159912C3.08 0.159912 0 3.55991 0 7.79991C0 22.5199 0 45.8399 0 60.5599C0 64.7599 3.08 68.0399 6.88 67.8399C68.92 64.8399 131.08 64.8399 193.12 67.8399C196.92 68.0399 200 64.7599 200 60.5599C200 45.8399 200 22.5199 200 7.79991C200 3.59991 196.92 0.159912 193.12 0.159912C182 0.159912 170.88 0.159912 159.8 0.159912Z" fill="#0B478B"/>
<path d="M90.9599 44.5599C88.4799 44.5599 86.0399 44.5999 83.5599 44.5999C82.9599 43.0399 82.3599 41.5199 81.7599 39.9599C81.1199 38.2799 80.5199 37.0399 79.9999 36.2399C79.4799 35.4399 78.9599 34.9599 78.4799 34.7199C77.9999 34.5199 77.3199 34.3999 76.5599 34.3999C76.3199 34.3999 76.0399 34.3999 75.7999 34.3999C75.7999 37.7999 75.7999 41.2399 75.7999 44.6399C73.5199 44.6799 71.1999 44.6799 68.9199 44.7199C68.9199 35.9599 68.9199 27.1999 68.9199 18.4399C72.8399 18.4399 76.7199 18.3999 80.6399 18.3999C82.5199 18.3999 84.0799 18.8399 85.2799 19.7199C86.4799 20.5999 87.3599 21.6799 87.8799 22.9199C88.3999 24.1599 88.6799 25.3599 88.6799 26.5199C88.6799 27.8399 88.4399 28.9599 87.9999 29.8799C87.5599 30.7999 87.0799 31.4399 86.5999 31.8799C86.1199 32.2799 85.5599 32.6799 84.9199 33.0799C85.6399 33.5599 86.2799 34.1599 86.7199 34.7999C87.1999 35.4799 87.8399 36.8399 88.6799 38.8799C89.3999 40.7599 90.1599 42.6399 90.9599 44.5599ZM81.5999 26.6799C81.5999 25.4799 81.2399 24.6399 80.5599 24.1599C79.8799 23.6799 78.7599 23.4399 77.1999 23.4399C76.7199 23.4399 76.2399 23.4399 75.7599 23.4399C75.7599 25.5599 75.7599 27.6399 75.7599 29.7599C76.2399 29.7599 76.7599 29.7599 77.2399 29.7599C78.9199 29.7599 80.0799 29.5199 80.6799 29.1199C81.2799 28.7199 81.5999 27.8799 81.5999 26.6799Z" fill="white"/>
<path d="M117.04 31.4798C117.04 33.9198 116.56 36.1598 115.56 38.1998C114.56 40.2398 113.12 41.8798 111.16 43.0798C109.2 44.2798 106.84 44.8798 104.08 44.8798C101.24 44.8798 98.8799 44.2398 96.9199 42.9998C94.9599 41.7598 93.5199 40.0798 92.5599 38.0398C91.5999 35.9998 91.1199 33.7998 91.1199 31.4798C91.1199 29.1198 91.5999 26.9198 92.5199 24.8798C93.4799 22.8398 94.9199 21.1998 96.8799 19.9198C98.8399 18.6798 101.24 18.0398 104.04 18.0398C106.16 18.0398 108.04 18.3998 109.68 19.1198C111.32 19.8398 112.68 20.7998 113.76 22.0398C114.84 23.2798 115.64 24.6798 116.2 26.3198C116.76 27.9598 117.04 29.6798 117.04 31.4798ZM110.04 31.4398C110.04 30.4798 109.92 29.5598 109.68 28.7598C109.44 27.9598 109.04 27.2398 108.52 26.6398C108 26.0398 107.4 25.5598 106.64 25.2398C105.92 24.9198 105.04 24.7198 104.08 24.7198C102.24 24.7198 100.8 25.3198 99.7199 26.5598C98.6799 27.7998 98.1199 29.3998 98.1199 31.3998C98.1199 33.3998 98.6399 34.9998 99.7199 36.2398C100.76 37.4798 102.24 38.0798 104.04 38.0798C105.32 38.0798 106.36 37.7998 107.28 37.2398C108.16 36.6798 108.84 35.8798 109.32 34.8798C109.8 33.9198 110.04 32.7598 110.04 31.4398Z" fill="white"/>
<path d="M145.04 44.8797C143 44.8397 140.96 44.7997 138.92 44.7997C134.96 39.8397 131.04 34.9597 127.08 30.0397C127.08 34.9197 127.08 39.7597 127.08 44.6397C124.8 44.5997 122.52 44.5997 120.28 44.5997C120.28 35.8797 120.28 27.1597 120.28 18.4397C122.32 18.4397 124.36 18.4397 126.4 18.4397C130.32 23.2797 134.28 28.1597 138.2 33.0797C138.2 28.2397 138.2 23.3597 138.2 18.5197C140.48 18.5197 142.76 18.5597 145.08 18.5597C145 27.3197 145.04 36.0797 145.04 44.8797Z" fill="white"/>
<path d="M157 45.1198C154.72 45.0798 152.4 45.0398 150.12 44.9998C150.12 36.1998 150.12 27.3598 150.12 18.5598C152.4 18.5598 154.72 18.5998 157 18.5998C157 27.4398 157 36.2798 157 45.1198Z" fill="white"/>
<path d="M187.88 45.4398C184.92 45.3598 182.12 45.3598 179.16 45.2798C178.36 44.1198 174.12 37.5198 173.84 37.0798C172.52 39.1198 169.12 44.2798 168.44 45.2798C165.52 45.1998 162.72 45.2398 159.84 45.1598C163.08 40.6398 165.8 36.7998 168.92 31.9598C165.12 26.4398 162.8 22.8798 159.84 18.5998C162.76 18.6398 165.48 18.6398 168.4 18.6798C168.92 19.4398 172.32 24.7198 173.88 26.5198C176.12 23.4398 178.64 19.3598 179.24 18.5198C182.12 18.5598 185 18.5598 187.88 18.5998C184.92 22.9198 181.72 27.7198 178.76 31.9598C181.64 36.7198 184.56 40.2398 187.88 45.4398Z" fill="white"/>
<path d="M39.04 50.1998L30.44 50.4398L20.28 36.3598L20.24 46.9598L12.96 47.1598L13.08 18.7998L20.28 18.5598L20.24 29.2398L26.88 18.7598L35.04 18.5998L26.4 32.1598L39.04 50.1998Z" fill="white"/>
<path d="M42.48 18.5999C42.48 20.7599 42.48 22.9199 42.48 25.0799C43.56 25.0799 50 24.9999 50.84 24.9999C50.84 31.6799 50.84 38.3599 50.84 45.0399C53.12 44.9999 55.4 44.9599 57.72 44.9199C57.72 38.2799 57.72 31.5999 57.72 24.9599C60.52 24.9199 63.28 24.9199 66.08 24.9199C66.08 22.7999 66.08 20.6399 66.08 18.5199C60.12 18.4799 43.52 18.5999 42.48 18.5999Z" fill="white"/>
<path d="M39.36 35.5998C37.16 35.7998 35.32 33.9198 35.68 31.7198C35.92 30.2798 37.04 29.1598 38.48 28.9198C40.68 28.5598 42.6 30.3998 42.36 32.5998C42.2 34.1598 40.92 35.4398 39.36 35.5998ZM38.64 29.4398C37.36 29.5998 36.36 30.6398 36.2 31.8798C35.96 33.7198 37.52 35.2798 39.4 35.0798C40.68 34.9198 41.68 33.9198 41.84 32.6398C42.04 30.7598 40.48 29.1998 38.64 29.4398Z" fill="url(#paint0_linear_174_374)"/>
<path d="M39.0001 29.1597C40.7201 29.1597 42.1201 30.5597 42.1201 32.2797C42.1201 33.9997 40.7201 35.3997 39.0001 35.3997C37.2801 35.3997 35.8801 33.9997 35.8801 32.2797C35.8801 30.5597 37.2801 29.1597 39.0001 29.1597Z" fill="url(#paint1_radial_174_374)"/>
</g>
<defs>
<linearGradient id="paint0_linear_174_374" x1="36.6131" y1="29.8668" x2="41.3861" y2="34.6399" gradientUnits="userSpaceOnUse">
<stop stop-color="white"/>
<stop offset="0.4224" stop-color="#B8B8B8"/>
<stop offset="0.8138" stop-color="#7D7D7D"/>
<stop offset="1" stop-color="#666666"/>
</linearGradient>
<radialGradient id="paint1_radial_174_374" cx="0" cy="0" r="1" gradientUnits="userSpaceOnUse" gradientTransform="translate(37.533 30.7569) scale(3.27383 3.27383)">
<stop stop-color="white"/>
<stop offset="1" stop-color="#E63843"/>
</radialGradient>
<clipPath id="clip0_174_374">
<rect width="200" height="68" fill="white"/>
</clipPath>
</defs>
</svg>
